<svg xmlns="http://www.w3.org/2000/svg" width="24" height="24">
    <defs>
        <filter id="prefix__a">
            <feFlood flood-color="#FFF" flood-opacity="1" result="floodOut"/>
            <feComposite in="floodOut" in2="SourceGraphic" operator="atop" result="compOut"/>
            <feBlend in="compOut" in2="SourceGraphic"/>
        </filter>
    </defs>
    <g filter="url(#prefix__a)">
        <path fill="#1A1B1C" fill-rule="evenodd" d="M23.432 20.754c.337.335.523.78.522 1.254 0 .474-.185.919-.522 1.254-.347.346-.804.519-1.261.519-.457 0-.914-.173-1.261-.519l-2.212-2.2c-.12-.118-.315-.118-.435 0-.412.411-1.131.411-1.543 0l-1.597-1.588c-.018-.013-.039-.021-.055-.037-.016-.016-.024-.036-.037-.054l-2.215-2.204c-.018-.013-.039-.021-.056-.037-.016-.016-.024-.036-.037-.055l-2.544-2.53c-.018-.013-.039-.021-.056-.037-.016-.016-.024-.037-.037-.056l-2.544-2.53c-.018-.013-.039-.02-.056-.037-.016-.016-.024-.037-.036-.055l-2.544-2.53c-.019-.013-.04-.02-.057-.037-.016-.017-.024-.038-.037-.056L1.548 5.972c-.379-.377-.589-.879-.589-1.413s.21-1.037.589-1.414l1.658-1.649c.783-.78 2.059-.779 2.842 0l15.173 15.091c.425.422.425 1.111 0 1.534-.058.058-.09.135-.09.217 0 .081.032.158.09.216l2.211 2.2zm-1.968 1.957c.39.388 1.024.387 1.414 0 .189-.188.293-.437.293-.703 0-.266-.104-.516-.293-.703l-1.089-1.084-1.4 1.392c-.005.005-.012.007-.018.011l1.093 1.087zm-.797-5.141c.119-.119.119-.313 0-.432l-1.366-1.359-.712.708c-.076.076-.177.114-.277.114-.1 0-.2-.038-.277-.114-.153-.153-.153-.399 0-.551l.712-.708-1.754-1.744-.712.708c-.076.076-.176.114-.277.114-.1 0-.2-.038-.277-.114-.153-.152-.153-.399 0-.551l.712-.708-2.083-2.072-.712.708c-.076.076-.176.115-.277.115-.1 0-.2-.039-.277-.115-.153-.152-.153-.398 0-.551l.712-.708-2.083-2.072-.712.709c-.076.076-.176.114-.277.114-.1 0-.2-.038-.277-.114-.153-.153-.153-.399 0-.551l.712-.709-2.083-2.071-.712.707c-.076.076-.176.115-.277.115-.1 0-.2-.039-.277-.115-.153-.152-.153-.398 0-.551l.712-.707-3.034-3.018c-.478-.475-1.256-.475-1.734 0L2.102 3.696c-.231.231-.359.537-.359.863 0 .326.128.632.359.862l3.033 3.017.703-.699c.152-.152.4-.152.554 0 .153.153.153.399 0 .551l-.703.699 2.083 2.072.703-.699c.153-.152.401-.152.554 0 .153.152.153.399 0 .551l-.702.699 2.082 2.072.703-.699c.153-.152.401-.152.554 0 .153.152.153.399 0 .551l-.703.699 2.083 2.071.703-.698c.153-.153.401-.153.554 0 .153.152.153.398 0 .551l-.703.698 1.754 1.744.702-.698c.154-.153.401-.153.554 0 .154.152.154.398 0 .551l-.702.699 1.366 1.358c.117.116.319.116.435 0 .213-.211.492-.316.772-.316.279 0 .558.105.771.316l.571.568c.005-.005.007-.012.012-.017l1.399-1.392-.567-.565c-.206-.205-.32-.478-.32-.767 0-.29.114-.563.32-.768zm-3.185.174c-.1 0-.2-.039-.277-.115L3.361 3.86c-.153-.152-.153-.399 0-.551.153-.152.401-.152.554 0l13.844 13.769c.153.153.153.399 0 .551-.076.076-.176.115-.277.115z"/>
    </g>
</svg>
