<svg xmlns="http://www.w3.org/2000/svg" width="17" height="24">
    <path fill="#1A1B1C" fill-rule="evenodd" d="M14.05 12.715h2.182v.738H14.05v-.738zm0-1.475h2.182v.738H14.05v-.738zm0-1.475h2.182v.738H14.05v-.738zm0-1.475h2.182v.737H14.05V8.29zm0-1.476h2.182v.738H14.05v-.738zm-.727 5.901v3.143c1.298.464 2.182 1.712 2.182 3.127 0 1.83-1.469 3.32-3.273 3.32s-3.272-1.49-3.272-3.32c0-1.415.883-2.663 2.181-3.127v-3.143h2.182zm-3.636 6.27c0 1.424 1.142 2.582 2.545 2.582 1.404 0 2.545-1.158 2.545-2.582 0-1.176-.784-2.203-1.909-2.497l-.272-.071v-2.964h-.728v2.964l-.272.071c-1.124.294-1.909 1.321-1.909 2.497zm4.363-15.49c0-1.017-.815-1.844-1.818-1.844-1.002 0-1.818.827-1.818 1.844v11.874l-.181.107c-1.267.744-2.033 2.126-2 3.605.048 2.102 1.771 3.878 3.842 3.958 1.102.046 2.14-.358 2.931-1.13.79-.772 1.226-1.811 1.226-2.924 0-1.44-.767-2.784-2-3.509l-.182-.107v-1.178h.727v.759c1.351.878 2.182 2.405 2.182 4.035 0 1.315-.515 2.543-1.449 3.455-.89.868-2.047 1.34-3.276 1.34l-.187-.003c-2.448-.096-4.485-2.194-4.541-4.68-.038-1.676.793-3.246 2.181-4.148V3.495c0-1.424 1.142-2.582 2.545-2.582 1.404 0 2.545 1.158 2.545 2.582v2.582h-.727V3.495zM8.887 6.593l-.582.443-.982-1.328H5.589l.867 1.523 1.625.198-.087.733-1.083-.133.363.639-.629.369-.364-.639-.428 1.018-.669-.29.642-1.526-.866-1.523L4.093 7.6l.642 1.526-.669.29-.428-1.018-.364.639-.629-.369.363-.639-1.083.133-.086-.733 1.624-.198.867-1.523H2.596l-.982 1.328-.582-.443.655-.885H.96V4.97h.727l-.655-.885.582-.442.982 1.327H4.33l-.867-1.523-1.624-.198.086-.733 1.083.133-.363-.639.629-.369.364.639.428-1.018.669.29-.642 1.527.867 1.522.866-1.522-.642-1.527.669-.29.428 1.018.364-.639.629.369-.363.639 1.083-.133.087.733-1.625.198-.867 1.523h1.734l.982-1.327.582.442-.655.885h.728v.738h-.728l.655.885z"/>
</svg>
