<svg xmlns="http://www.w3.org/2000/svg" width="19" height="26">
    <defs>
        <filter id="prefix__a">
            <feFlood flood-color="#FFF" flood-opacity="1" result="floodOut"/>
            <feComposite in="floodOut" in2="SourceGraphic" operator="atop" result="compOut"/>
            <feBlend in="compOut" in2="SourceGraphic"/>
        </filter>
    </defs>
    <g filter="url(#prefix__a)">
        <path fill="#1A1B1C" fill-rule="evenodd" d="M15.689 13.748h2.454v.801h-2.454v-.801zm0-1.604h2.454v.802h-2.454v-.802zm0-1.604h2.454v.802h-2.454v-.802zm0-1.603h2.454v.802h-2.454v-.802zm0-1.604h2.454v.802h-2.454v-.802zm-2.046-4.81c.677 0 1.227.539 1.227 1.202v13.439c1.46.504 2.455 1.86 2.455 3.399 0 1.082-.489 2.097-1.342 2.785-.664.537-1.492.821-2.346.821-.243 0-.487-.022-.731-.069-1.464-.28-2.623-1.438-2.885-2.88-.323-1.784.695-3.474 2.395-4.057V3.725c0-.663.55-1.202 1.227-1.202zM10.826 21.08c.203 1.119 1.101 2.017 2.236 2.233.862.165 1.737-.048 2.4-.583.664-.536 1.045-1.326 1.045-2.167 0-1.279-.883-2.395-2.148-2.714l-.307-.078V3.725c0-.221-.183-.401-.409-.401-.226 0-.409.18-.409.401v14.046l-.307.078c-1.464.37-2.367 1.759-2.101 3.231zm4.863-17.355c0-1.105-.918-2.004-2.046-2.004-1.128 0-2.045.899-2.045 2.004v12.907l-.204.116c-1.425.809-2.287 2.31-2.249 3.918.053 2.286 1.992 4.216 4.321 4.303 1.239.049 2.408-.39 3.298-1.229.889-.839 1.379-1.968 1.379-3.177 0-1.565-.862-3.027-2.25-3.815l-.204-.116v-1.281h.818v.825c1.519.955 2.454 2.615 2.454 4.387 0 1.429-.579 2.763-1.63 3.755-1.001.943-2.302 1.457-3.686 1.457-.069 0-.139-.002-.21-.004-2.753-.104-5.045-2.385-5.109-5.087-.043-1.822.893-3.529 2.454-4.508V3.725c0-1.547 1.284-2.806 2.863-2.806s2.864 1.259 2.864 2.806v2.807h-.818V3.725zM8.734 4.928h1.227v.802H8.734v-.802zm-1.247-2.15l.867-.851.579.567-.868.851-.578-.567zM5.052.919h.819v1.203h-.819V.919zM1.99 2.494l.579-.567.867.851-.578.566-.868-.85zm.199 3.236H.962v-.802h1.227v.802zm1.248 2.15l-.868.851-.579-.567.868-.851.579.567zm2.434 1.859h-.819V8.536h.819v1.203zm-2.864-4.41c0-1.327 1.101-2.406 2.454-2.406 1.354 0 2.455 1.079 2.455 2.406 0 1.326-1.101 2.405-2.455 2.405-1.353 0-2.454-1.079-2.454-2.405zm4.091 0c0-.885-.734-1.604-1.637-1.604-.902 0-1.636.719-1.636 1.604 0 .884.734 1.603 1.636 1.603.903 0 1.637-.719 1.637-1.603zm1.835 2.835l-.579.567-.867-.851.578-.567.868.851z"/>
    </g>
</svg>
