<svg xmlns="http://www.w3.org/2000/svg" width="26" height="26">
    <path fill="#1A1B1C" fill-rule="evenodd" d="M21.116 16.153h-5.241v2.406c1.014.756 1.613 1.939 1.613 3.207 0 1.092-.434 2.113-1.221 2.874-.76.734-1.754 1.135-2.81 1.135l-.116-.002c-2.145-.059-3.902-1.844-3.918-3.979-.009-1.278.59-2.472 1.613-3.235v-2.406H5.391c-2.445 0-4.435-1.978-4.435-4.41 0-2.366 1.885-4.304 4.241-4.405.67-.998 1.805-1.608 3.017-1.608.1 0 .202.005.305.013.874-2.858 3.517-4.824 6.549-4.824 3.35 0 6.198 2.415 6.753 5.667 2.343.343 4.134 2.373 4.134 4.756 0 2.653-2.17 4.811-4.839 4.811zM10.23 21.789c.012 1.707 1.417 3.135 3.133 3.182.889.035 1.711-.297 2.341-.906.63-.609.977-1.426.977-2.299 0-1.072-.536-2.069-1.434-2.667l-.179-.119v-8.84c0-.885-.723-1.604-1.613-1.604-.889 0-1.612.719-1.612 1.604v8.84l-.179.119c-.906.603-1.442 1.608-1.434 2.69zm10.865-14.56l-.029-.23c-.369-3.009-2.948-5.278-5.998-5.278-2.782 0-5.193 1.877-5.863 4.564l-.092.367-.374-.07c-.18-.033-.356-.05-.525-.05-1.002 0-1.939.538-2.443 1.405l-.117.2-.279-.002c-1.985 0-3.613 1.619-3.613 3.608 0 1.99 1.628 3.608 3.629 3.608h5.645V10.14c0-1.327 1.085-2.406 2.419-2.406 1.335 0 2.42 1.079 2.42 2.406v3.548c2.954-.394 5.241-2.91 5.241-5.954 0-.17-.008-.339-.021-.505zm.814.19c.005.105.014.209.014.315 0 3.486-2.648 6.365-6.048 6.764v.853h5.241c2.224 0 4.033-1.798 4.033-4.009 0-1.915-1.39-3.553-3.24-3.923zm-8.857 11.977v-7.653h.807v7.653c1.142.192 2.016 1.18 2.016 2.37 0 1.326-1.085 2.405-2.42 2.405-1.334 0-2.419-1.079-2.419-2.405 0-1.19.874-2.178 2.016-2.37zm.403 3.973c.89 0 1.613-.719 1.613-1.603 0-.885-.723-1.604-1.613-1.604-.889 0-1.612.719-1.612 1.604 0 .884.723 1.603 1.612 1.603zm-.403-13.229h.807v.801h-.807v-.801z"/>
</svg>
