<svg xmlns="http://www.w3.org/2000/svg" width="17" height="24">
    <defs>
        <filter id="prefix__a">
            <feFlood flood-color="#FFF" flood-opacity="1" result="floodOut"/>
            <feComposite in="floodOut" in2="SourceGraphic" operator="atop" result="compOut"/>
            <feBlend in="compOut" in2="SourceGraphic"/>
        </filter>
    </defs>
    <g filter="url(#prefix__a)">
        <path fill="#1A1B1C" fill-rule="evenodd" d="M14.05 12.715h2.182v.738H14.05v-.738zm0-1.475h2.182v.738H14.05v-.738zm0-1.475h2.182v.738H14.05v-.738zm0-1.475h2.182v.737H14.05V8.29zm0-1.476h2.182v.738H14.05v-.738zm-.727 5.901v3.143c1.298.464 2.182 1.712 2.182 3.127 0 1.83-1.469 3.32-3.273 3.32s-3.273-1.49-3.273-3.32c0-1.415.884-2.663 2.182-3.127v-3.143h2.182zm-3.636 6.27c0 1.424 1.141 2.582 2.545 2.582s2.546-1.158 2.546-2.582c0-1.176-.786-2.203-1.91-2.497l-.272-.071v-2.964h-.727v2.964l-.273.071c-1.124.294-1.909 1.321-1.909 2.497zm4.363-15.49c0-1.017-.815-1.844-1.818-1.844-1.002 0-1.818.827-1.818 1.844v11.874l-.181.107c-1.267.744-2.033 2.126-2 3.605.048 2.102 1.771 3.878 3.842 3.958 1.102.046 2.14-.358 2.93-1.13.791-.772 1.227-1.811 1.227-2.924 0-1.44-.767-2.784-2-3.509l-.182-.107v-1.178h.728v.759c1.35.878 2.181 2.405 2.181 4.035 0 1.315-.515 2.543-1.449 3.455-.89.868-2.047 1.34-3.276 1.34l-.187-.003c-2.448-.096-4.485-2.194-4.541-4.68-.038-1.676.793-3.246 2.181-4.148V3.495c0-1.424 1.141-2.582 2.545-2.582s2.546 1.158 2.546 2.582v2.582h-.728V3.495zM8.887 6.593l-.582.443-.982-1.328H5.589l.867 1.523 1.625.198-.087.733-1.083-.133.363.639-.629.369-.364-.639-.428 1.018-.669-.29.642-1.526-.866-1.523L4.093 7.6l.642 1.526-.668.29-.429-1.018-.364.639-.629-.369.363-.639-1.083.133-.086-.733 1.624-.198.867-1.523H2.596l-.982 1.328-.582-.443.655-.885H.96V4.97h.727l-.655-.885.582-.442.982 1.327H4.33l-.867-1.523-1.624-.198.086-.733 1.083.133-.363-.639.629-.369.364.639.429-1.017.668.289-.642 1.527.867 1.522.866-1.522-.642-1.527.669-.289.428 1.017.364-.639.629.369-.363.639 1.083-.133.087.733-1.625.198-.867 1.523h1.734l.982-1.327.582.442-.655.885h.727v.738h-.727l.655.885z"/>
    </g>
</svg>
