<svg xmlns="http://www.w3.org/2000/svg" width="41" height="41">
    <path fill="#F14921" fill-rule="evenodd" d="M20.5 41C9.196 41 .001 31.803.001 20.499.001 9.196 9.196 0 20.5 0c11.304 0 20.499 9.196 20.499 20.499C41.001 31.803 31.804 41 20.5 41zm0-38.658c-10.013 0-18.158 8.146-18.158 18.157 0 10.012 8.145 18.157 18.158 18.157 10.011 0 18.156-8.145 18.156-18.157 0-10.011-8.145-18.157-18.156-18.157zm8.083 19.328h-6.912v6.912c0 .648-.523 1.171-1.171 1.171-.647 0-1.172-.524-1.172-1.171V21.67h-6.911c-.647 0-1.172-.523-1.172-1.171 0-.647.524-1.172 1.172-1.172h6.911v-6.911c0-.646.525-1.172 1.172-1.172.647 0 1.171.526 1.171 1.172v6.911h6.912c.647 0 1.171.525 1.171 1.172 0 .648-.523 1.171-1.171 1.171z"/>
</svg>
