<svg xmlns="http://www.w3.org/2000/svg" width="19" height="17">
    <path fill="#F45A19" fill-rule="evenodd" d="M17.653 1.371c-.897-.915-2.138-1.372-3.721-1.372-.438 0-.886.079-1.342.238-.455.158-.88.372-1.272.642-.392.269-.729.522-1.012.758-.283.236-.552.487-.806.753-.255-.266-.523-.517-.806-.753-.283-.236-.62-.489-1.012-.758-.393-.27-.817-.484-1.273-.642-.456-.159-.903-.238-1.341-.238-1.583 0-2.824.457-3.721 1.372C.449 2.287 0 3.556 0 5.179c0 .495.083 1.004.249 1.528.166.524.355.97.567 1.339.212.369.453.729.721 1.079.269.351.465.592.589.725.124.133.221.229.291.288l6.616 6.664c.128.133.283.199.467.199.184 0 .339-.066.467-.199l6.605-6.642C18.191 8.47 19 6.81 19 5.179c0-1.624-.449-2.893-1.347-3.808zM15.649 9.12L9.5 15.307 3.34 9.109c-1.322-1.38-1.983-2.69-1.983-3.93 0-.598.076-1.125.228-1.583.152-.457.347-.821.583-1.09.237-.27.525-.489.864-.659.34-.169.672-.284.997-.343.325-.059.672-.088 1.039-.088.368 0 .764.094 1.188.282.424.188.814.424 1.171.708.357.285.663.55.917.797.255.248.467.474.636.681.128.163.301.244.52.244.219 0 .392-.081.52-.244.169-.207.381-.433.636-.681.254-.247.56-.512.917-.797.357-.284.747-.52 1.172-.708.423-.188.819-.282 1.187-.282.368 0 .714.029 1.039.088.325.059.657.174.997.343.339.17.627.39.864.659s.431.633.583 1.09c.152.458.228.985.228 1.583 0 1.24-.665 2.553-1.994 3.941z"/>
</svg>
