<svg xmlns="http://www.w3.org/2000/svg" width="27" height="27">
    <path fill="#FFF" fill-rule="evenodd" d="M13.539.35c7.303 0 13.224 5.92 13.224 13.223 0 7.302-5.921 13.223-13.224 13.223-7.304 0-13.225-5.921-13.225-13.223C.314 6.27 6.235.35 13.539.35zm0 23.967c5.925 0 10.745-4.82 10.745-10.744 0-5.924-4.82-10.744-10.745-10.744-5.925 0-10.745 4.82-10.745 10.744 0 5.924 4.82 10.744 10.745 10.744zm1.228-16.203l.003.003c.221-.203.512-.329.835-.329.685 0 1.24.555 1.24 1.24 0 .361-.157.684-.404.91l.002.003-3.962 3.632 3.962 3.632-.002.003c.247.226.404.549.404.911 0 .684-.555 1.239-1.24 1.239-.323 0-.614-.127-.835-.329l-.003.003-4.959-4.545c-.256-.235-.402-.566-.402-.914 0-.348.146-.679.402-.914l4.959-4.545z"/>
</svg>
