<svg xmlns="http://www.w3.org/2000/svg" width="27" height="27" viewBox=" 0 0.5 27 27">
    <path fill="#FFF" fill-rule="evenodd" d="M13.539 27.244C6.235 27.244.314 21.323.314 14.021.314 6.718 6.235.797 13.539.797c7.303 0 13.224 5.921 13.224 13.224 0 7.302-5.921 13.223-13.224 13.223zm0-23.968c-5.925 0-10.745 4.82-10.745 10.745 0 5.923 4.82 10.743 10.745 10.743 5.925 0 10.745-4.82 10.745-10.743 0-5.925-4.82-10.745-10.745-10.745zM12.31 19.48l-.002-.004c-.221.203-.513.329-.836.329-.684 0-1.24-.555-1.24-1.239 0-.362.158-.684.405-.911l-.003-.003 3.963-3.631-3.963-3.632.003-.004c-.247-.226-.405-.548-.405-.91 0-.685.556-1.24 1.24-1.24.323 0 .615.127.836.329l.002-.003 4.959 4.546c.256.235.402.565.402.914 0 .347-.146.678-.402.913L12.31 19.48z"/>
</svg>
