<svg xmlns="http://www.w3.org/2000/svg" width="17" height="17">
    <path fill="#F85F19" fill-rule="evenodd" d="M11.347 1.938c-2.594-2.594-6.816-2.594-9.41 0-2.593 2.595-2.593 6.815 0 9.409 2.31 2.31 5.908 2.557 8.5.754.055.258.18.504.38.705l3.778 3.776c.55.55 1.439.55 1.988 0 .549-.549.549-1.438 0-1.987l-3.778-3.778c-.2-.2-.447-.325-.705-.379 1.805-2.593 1.557-6.189-.753-8.5zm-1.193 8.217c-1.936 1.936-5.087 1.936-7.024 0-1.935-1.937-1.935-5.087 0-7.024 1.937-1.936 5.088-1.936 7.024 0 1.937 1.937 1.937 5.087 0 7.024z"/>
</svg>
