<svg xmlns="http://www.w3.org/2000/svg" width="19" height="15">
    <path fill="#FFF" fill-rule="evenodd" d="M19.002 1.783c-.748.312-1.495.507-2.243.586.844-.492 1.415-1.187 1.713-2.086-.772.446-1.596.75-2.472.914C15.228.401 14.279.002 13.154.002c-1.077 0-1.996.369-2.756 1.107-.759.738-1.139 1.631-1.139 2.677 0 .281.032.57.096.867-1.591-.078-3.085-.467-4.479-1.166-1.395-.699-2.579-1.63-3.552-2.794-.353.586-.53 1.222-.53 1.91 0 .648.156 1.25.47 1.804.314.555.736 1.004 1.266 1.347-.627-.023-1.214-.183-1.76-.48v.047c0 .914.295 1.716.886 2.407.591.692 1.337 1.127 2.237 1.307-.338.085-.68.128-1.025.128-.225 0-.47-.019-.736-.058.25.758.708 1.38 1.375 1.869.667.488 1.423.74 2.267.755-1.415 1.078-3.027 1.617-4.835 1.617-.346 0-.66-.015-.941-.047 1.809 1.133 3.802 1.699 5.981 1.699 1.383 0 2.681-.213 3.895-.638 1.214-.426 2.251-.996 3.111-1.711.86-.715 1.602-1.537 2.224-2.466.623-.93 1.088-1.9 1.393-2.911.306-1.012.458-2.025.458-3.041 0-.218-.003-.382-.012-.492.764-.539 1.415-1.191 1.954-1.956z"/>
</svg>
