<svg xmlns="http://www.w3.org/2000/svg" width="21" height="15">
    <path fill="#FFF" fill-rule="evenodd" d="M20.181 1.288C19.423.373 18.024 0 15.351 0H5.649C2.915 0 1.491.397.736 1.371 0 2.32 0 3.719 0 5.655v3.69C0 13.096.874 15 5.649 15h9.702c2.318 0 3.602-.329 4.433-1.136.852-.828 1.216-2.179 1.216-4.519v-3.69c0-2.042-.057-3.449-.819-4.367zm-6.699 6.721l-4.406 2.338c-.098.052-.206.078-.314.078-.121 0-.243-.034-.35-.1-.203-.124-.327-.347-.327-.588V5.078c0-.24.123-.463.326-.588.202-.124.454-.133.664-.022l4.406 2.322c.224.118.364.353.365.609 0 .257-.14.492-.364.61z"/>
</svg>
